<svg width="44" height="38" viewBox="0 0 44 38" fill="white" xmlns="http://www.w3.org/2000/svg">
<path d="M25.685 0.0999924C25.4685 0.0896797 25.2313 0.141242 25.0525 0.292492L22.66 2.32749L29.095 9.55999H29.7L32.395 6.86499L31.625 6.03999H35.7225L30.4425 11.32H28.27C28.2494 11.2925 28.2356 11.2616 28.215 11.2375L20.075 2.07999C19.9135 1.89781 19.6866 1.78437 19.4425 1.77749C19.1847 1.76718 18.9785 1.88062 18.81 2.05249L16.61 4.27999H13.6125C13.42 4.27999 13.2172 4.35562 13.0625 4.47249L3.87752 11.5125C3.86377 11.5228 3.83627 11.5297 3.82252 11.54C3.80877 11.5537 3.80877 11.5537 3.79502 11.5675C3.77783 11.5847 3.75377 11.6053 3.74002 11.6225C3.70565 11.6637 3.68502 11.7153 3.65752 11.76C3.64721 11.7772 3.61283 11.7978 3.60252 11.815L0.0825221 18.855C-0.0859154 19.1953 -0.0206029 19.6044 0.247522 19.8725C0.415959 20.0409 0.653148 20.12 0.880022 20.12C1.01408 20.12 1.14127 20.0994 1.26502 20.0375L3.52002 18.91V36.84C3.52002 37.3281 3.91533 37.72 4.40002 37.72H30.8C30.9306 37.72 31.0475 37.6891 31.1575 37.6375C31.1885 37.6237 31.2125 37.5997 31.24 37.5825C31.3191 37.5344 31.4016 37.4862 31.46 37.4175C31.4703 37.4072 31.4772 37.4003 31.4875 37.39L38.5275 28.59C38.6513 28.4319 38.72 28.2394 38.72 28.04V22.1275L36.1625 24.795C35.9941 24.9703 35.7706 25.07 35.53 25.07C35.4991 25.07 35.451 25.0734 35.42 25.07C35.145 25.0391 34.901 24.8672 34.76 24.63L29.92 16.5175V35.96H5.28002V13.08H29.92L35.6675 22.7325L43.7525 14.5925C44.0378 14.3072 44.0722 13.8672 43.8625 13.52L38.5825 4.71999C38.5756 4.70624 38.5653 4.67874 38.555 4.66499C38.531 4.62374 38.5035 4.58937 38.4725 4.55499C38.4656 4.54812 38.4794 4.53437 38.4725 4.52749C38.4588 4.51374 38.4313 4.51374 38.4175 4.49999C38.3866 4.47249 38.3694 4.44156 38.335 4.41749C38.3281 4.41406 38.3144 4.42093 38.3075 4.41749C38.28 4.40031 38.2525 4.37624 38.225 4.36249C38.1975 4.34874 38.17 4.34531 38.1425 4.33499C38.0944 4.31781 38.0566 4.31781 38.005 4.30749C37.9878 4.30406 37.9672 4.28343 37.95 4.27999C37.9363 4.27656 37.9088 4.28343 37.895 4.27999C37.871 4.27999 37.8641 4.27999 37.84 4.27999H29.975L26.2625 0.374992C26.101 0.203118 25.9016 0.110305 25.685 0.0999924ZM13.915 6.03999H14.905L9.70752 11.32H7.01252L13.915 6.03999ZM13.2 16.6C12.7153 16.6 12.32 16.9953 12.32 17.48C12.32 17.9647 12.7153 18.36 13.2 18.36H22C22.4847 18.36 22.88 17.9647 22.88 17.48C22.88 16.9953 22.4847 16.6 22 16.6H13.2Z" fill="#252525"/>
</svg>
